<svg 
  xmlns="http://www.w3.org/2000/svg" 
  viewBox="0 0 24 24"
  fill="currentColor"
  stroke="none"
  width="24"
  height="24"
  shape-rendering="geometricPrecision"
  aria-label="Templates"
  role="img"
  aria-hidden="false"
  preserveAspectRatio="xMidYMid meet"
>
  <title>Templates</title>
  <g>
    <!-- Base template shape - stacked documents -->
    <path 
      d="M19 3H5c-1.1 0-2 .9-2 2v14c0 1.1.9 2 2 2h14c1.1 0 2-.9 2-2V5c0-1.1-.9-2-2-2zm0 16H5V5h14v14z"
      opacity=".9"
    />
    
    <!-- Template content lines -->
    <path 
      d="M8 8h8v2H8zM8 11h8v2H8zM8 14h5v2H8z"
      opacity=".7"
    />
    
    <!-- Template corner fold -->
    <path 
      d="M15 3v2h4v14h-4v2h4c1.1 0 2-.9 2-2V5c0-1.1-.9-2-2-2h-4z"
      opacity=".3"
    />
  </g>
</svg>